# xmcd CD database file
#
# Track frame offsets:
#	150
#	21325
#	45600
#	66775
#
# Disc length: 1209 seconds
#
# Revision: 3
# Processed by: cddbd v1.5PL3 Copyright (c) Steve Scherf et al.
# Submitted via: CDex 1.51
#
DISCID=2f04b704
DTITLE=長澤奈央 - ×○×○×○
DYEAR=2004
DGENRE=Japanese Pop
TTITLE0=×○×○×○
TTITLE1=SORA
TTITLE2=×○×○×○ (off vocal)
TTITLE3=SORA (off vocal)
EXTD=YEAR: 2004
EXTT0=
EXTT1=
EXTT2=
EXTT3=
PLAYORDER=
